<svg xmlns="http://www.w3.org/2000/svg" width="128" height="128" viewBox="0 0 128 128" style="enable-background:new 0 0 128 128;version:1.1"><style>.a{display:none;}.b{fill:#03509E;}.c{fill:#FFF;}.d{fill:#231F20;}.e{fill:#BE2026;}.f{fill:#3282C0;}</style><g id="Top_Level_Categories" class="a"><path d="M112.441 113.049c0 5.312-4.478 9.617-10 9.617H25.774c-5.522 0-10-4.306-10-9.617V15.283c0-5.311 4.478-9.616 10-9.616h76.667c5.522 0 10 4.305 10 9.616V113.049z" class="b"/><path d="M60.108 92.3c-0.467 0-0.867-0.1-1.2-0.301L33.309 76.7l25.4-15.101c0.332-0.2 0.699-0.3 1.1-0.3 1.333 0 2 0.699 2 2.1v0.6l-2.4 7.9h3.7c3.933 0 7.466 0.967 10.601 2.9V53l-8.101 2.3c-0.134 0.067-0.334 0.1-0.6 0.1 -1.468 0-2.2-0.633-2.2-1.9 0-0.466 0.133-0.866 0.4-1.2l15.3-25.6 15.1 25.4c0.2 0.334 0.3 0.667 0.3 1 0 1.467-0.734 2.2-2.199 2.2 -0.2 0-0.367-0.033-0.5-0.1l-8.101-2.5v52.299h-9.5V91.8c0-2.865-1.017-5.333-3.05-7.4 -2.034-2.065-4.518-3.1-7.45-3.1h-3.6l2.5 8.3c0 0.067 0.065 0.234 0.2 0.5C62.209 91.567 61.509 92.3 60.108 92.3z" class="c"/></g><g id="BBPress_Tweaks" class="a"><circle cx="65.333" cy="64" r="54.333" class="c"/><path d="M123.642 63.248c0 8.142-1.599 16.044-4.791 23.709 -2.235 5.43-5.586 10.658-10.058 15.687 -2.396 2.712-4.711 4.989-6.947 6.824 -1.516 1.197-3.511 2.614-5.986 4.253 -2.475 1.636-3.872 2.454-4.189 2.454h-0.241v0.12c-0.158 0-0.318 0.04-0.478 0.12v0.118c0 0.081-0.062 0.119-0.179 0.119 -0.119 0-1.338 0.521-3.653 1.561 -2.557 1.113-4.431 1.874-5.626 2.273 -2.317 0.636-5.869 1.356-10.658 2.152C69.159 122.88 66.762 123 63.65 123c-16.845 0-31.094-5.986-42.75-17.964C9.405 93.384 3.658 79.493 3.658 63.368c0-3.992 0.639-8.7 1.917-14.13 1.356-5.987 3.59-11.496 6.704-16.525 6.227-9.978 14.09-17.482 23.59-22.512C44.49 5.572 53.79 3.256 63.771 3.256c2.554 0 5.188 0.2 7.903 0.599 3.828 0.559 7.422 1.357 10.778 2.394 2.152 0.72 5.187 2.038 9.097 3.952 0.078 0.082 6.626 3.833 10.061 6.707 2.554 2.154 4.268 3.673 5.148 4.55C118.014 33.671 123.642 47.602 123.642 63.248zM93.225 92.705c0-1.995-0.679-4.47-2.032-7.425 -1.361-2.951-2.956-5.029-4.792-6.226 -1.038-0.718-2.273-1.477-3.712-2.276V75.94c0.64-0.077 1.676-0.359 3.114-0.838 0.396-1.276 0.598-2.435 0.598-3.473 0-0.958-0.201-1.994-0.598-3.113 -2.475-1.196-3.794-1.796-3.953-1.796 -1.195 0-2.296 0.579-3.293 1.736 -0.996 1.157-1.494 2.377-1.494 3.652 0 0.238 0.218 0.879 0.655 1.915 0.439 1.039 0.659 1.637 0.659 1.796 0-0.078 0 0.081 0 0.479 0 0.161-0.079 0.281-0.239 0.359h-0.837c-1.759 0-3.233-1.635-4.433-4.909 -0.717-2.155-1.116-4.03-1.194-5.629 -0.041 0 0.07-0.289-0.283-0.387 -0.359-0.1-1.189-0.01-1.874-0.211 -0.881-0.24-1.358-0.639-1.437-1.199l-1.555-10.058c-0.562-2.953-1.399-7.342-2.519-13.171 -0.318-1.677-0.877-3.592-1.676-5.748 -0.799-0.639-1.994-1.318-3.592-2.035 -2.076-0.878-3.394-1.477-3.95-1.796V29.84c0.318-0.159 1.198-0.358 2.635-0.6 1.036-0.159 1.676-0.519 1.917-1.077 -0.24-1.276-0.36-1.994-0.36-2.157 0-0.477 0.12-1.175 0.36-2.095 0.238-0.916 0.357-1.617 0.357-2.095 0-3.593-2.236-5.389-6.705-5.389 -0.082 0-0.319 0-0.717 0 -0.401 0-0.719 0-0.959 0 -0.719 0-1.238 0.042-1.558 0.12 -0.558 0.162-1.197 0.978-1.915 2.455 -0.719 1.478-1.079 2.656-1.079 3.532 0 0.24 0.139 0.681 0.419 1.317 0.28 0.64 0.419 1.119 0.419 1.437 0 0.641-0.441 1.239-1.318 1.796 0.319 0.401 0.479 0.76 0.479 1.079 1.037 0.08 2.116 0.558 3.234 1.436 0 0.24 0 0.479 0 0.719 0 1.277-0.7 2.076-2.097 2.395 -1.396 0.32-2.734 0.6-4.009 0.838 -1.279 0.24-2.116 1.039-2.516 2.395 -2.955 11.975-5.468 21.792-7.543 29.457h0.094c0.192 0 0.32 0.081 0.385 0.239 0 0.479 0 1 0 1.557 0 3.034 0.877 4.551 2.634 4.551 0-0.24 0.041-0.677 0.12-1.316 0.078-0.638 0.121-1.037 0.121-1.199 0-0.318-0.043-0.557-0.121-0.718 -0.238-0.479-0.358-0.996-0.358-1.558 0-0.477 0.159-0.956 0.479-1.436 0.398-0.079 0.798-0.12 1.197-0.12 0.158 0 0.318 0 0.478 0 1.438-5.987 2.195-9.141 2.275-9.46 0.958-3.671 1.956-6.706 2.995-9.101l0.12 6.466c-0.319 2.954-0.799 5.988-1.438 9.102 -0.478 2.235-0.718 4.392-0.718 6.466 0.16 0.719 0.24 1.437 0.24 2.154v7.904c0.24-0.078 0.478-0.119 0.719-0.119 0.795 0 1.395 0.079 1.794 0.239 -0.56 1.837-0.839 4.032-0.839 6.586 0 2.556 0.319 6.188 0.958 10.896 0.797 5.51 1.238 9.021 1.317 10.537 -0.64-0.317-1.037-0.477-1.197-0.477 0 0-0.545-0.25-0.854-0.112s-0.391 0.344-0.224 0.71c1.835 2.712 3.072 4.07 3.713 4.07 0.638 0 1.035-0.118 1.197-0.357l1.796-23.829c0-0.879 0-1.477 0-1.798 0-1.354-0.439-3.353-1.316-5.988 0.397-0.397 0.837-0.598 1.316-0.598 0.078 0 0.22 0 0.419 0 0.198 0 0.358 0 0.479 0 0.12 0 0.24 0 0.358 0 0.122 0 0.22 0 0.301 0 0.316 0 0.598 0.04 0.837 0.118l-0.599 7.839c0 1.348 0.182 3.346 0.539 6 0.359 2.65 0.54 4.018 0.54 4.096v11.285c0.239 0 0.398 0 0.478 0h0.12c0.639 0 1.24 0.198 1.797 0.598 0.556 0.399 0.877 0.602 0.956 0.602 0.24 0 0.799-0.284 1.68-0.84 0.877-0.561 1.61-0.351 1.557-0.957s-3.594-1.199-3.594-2.158l1.917-17.122c0-6.385-0.081-9.658-0.241-9.817 0.478-0.56 1.079-0.839 1.796-0.839 0.16 0 0.44 0.041 0.839 0.119 0.318 0 0.56 0 0.717 0l-2.874-26.583c0-1.198 0.12-2.434 0.354-3.712 0.863 1.516 1.769 4.31 2.715 8.381 1.495 6.389 2.311 9.692 2.362 9.939 0.064 0.311 0.594 0.123 0.908 0.123 0.786 0 1.454 0.194 1.925 1.066 0.629 1.193 1.299 2.105 2.008 2.74 0.393 3.017 0.786 5.079 1.182 6.191 0.942 2.54 2.673 4.525 5.193 5.953 -0.529 2.461-1.845 6.271-3.954 11.432 1.037 0.318 2.356 0.874 3.954 1.666 -0.799 1.907-1.198 3.612-1.198 5.12 0 0.236 0.198 0.792 0.598 1.666s0.601 1.627 0.601 2.263c0 0.083 0 0.219 0 0.417s0 0.338 0 0.418c0 0.079 0 0.199 0 0.358 0 0.156 0 0.314 0 0.477 0 1.268-0.24 2.103-0.721 2.499h3.114c0.877-1.8 1.316-2.816 1.316-3.05 0-0.237-0.198-1.021-0.597-2.35 -0.399-1.328-0.598-2.071-0.598-2.228 0-0.549 0.198-1.31 0.598-2.29 0.398-0.975 0.837-1.582 1.318-1.819 0.077 0.159 0.115 0.272 0.115 0.354 0 0.312-0.038 0.666-0.115 1.056 0 0.393 0 0.665 0 0.821 0 0.705 0.197 1.602 0.598 2.698 0.077 0.392 0.356 1.076 0.837 2.055 0.478 0.978 0.719 1.582 0.719 1.818 0 0.312-0.399 1.29-1.199 2.934h2.397c1.117-1.488 1.677-2.664 1.677-3.525 0-0.311-0.062-0.938-0.183-1.878 -0.117-0.94-0.179-1.685-0.179-2.23 0-1.722 0.481-3.17 1.439-4.343 0.396-0.159 0.916-0.237 1.556-0.237 0.159 0-0.012-0.013 0.356 0 0.289 0.01 0-0.838 0-0.838 -0.398-2.076-0.958-5.228-1.676-9.461 1.037 0.24 2.037 1.278 2.995 3.113 0.958 1.837 1.437 3.313 1.437 4.432h1.318c0.478 0.562 0.35 1.551 0.837 1.556S93.225 93.423 93.225 92.705z" class="b"/></g><g id="Feedburner" class="a"><polygon points="65.027 18.381 8.783 116.398 121.271 116.398 " fill="#FFF200"/><path d="M124.246 118.17H5.468L64.857 15.22 124.246 118.17zM118.78 115.082L64.855 21.606l-53.923 93.476H118.78zM83.662 107.25H46.053v-3.526h37.609V107.25zM80.266 75.518c0.608 1.221 0.914 2.481 0.914 3.787 0 1.22-0.371 2.876-1.11 4.965 -0.741 2.089-1.154 3.396-1.239 3.924 -0.437 3.425-1.829 6.454-4.18 9.089 -2.351 2.634-5.223 4.346-8.618 5.135 2.785-3.164 4.179-6.682 4.179-10.549 0-0.527-0.131-1.406-0.391-2.64 0 2.612-0.915 5.008-2.744 7.183 0.087-0.347 0.132-0.868 0.132-1.567v-1.566c0-0.696 0.085-1.219 0.261-1.566 0.607-1.13 0.913-2.352 0.913-3.657 0-1.741-0.652-3.35-1.959-4.831 -1.915-2.089-2.871-4.44-2.871-7.052 -0.437 1.044-0.653 2.22-0.653 3.525 0 2.004 0.508 3.875 1.526 5.616 0.461 0.697 0.692 1.61 0.692 2.741 0 0.959-0.174 1.981-0.521 3.069 -0.348 1.089-0.914 1.938-1.697 2.546 0.085-0.435 0.13-1.088 0.13-1.958 0-1.741-0.567-3.918-1.698-6.53 -0.522-1.218-0.784-2.133-0.784-2.741 0 0.959-0.218 1.827-0.653 2.611 -0.783 1.393-1.24 2.307-1.371 2.742 -0.13 0.436-0.195 1.132-0.195 2.089 0 0.699 0.13 1.742 0.392 3.135 0.261 1.394 0.392 2.48 0.392 3.265 -0.176-1.131-0.61-2.176-1.306-3.135 -0.698-0.957-1.045-1.74-1.045-2.351 0-0.695-0.022-1.261-0.065-1.697 -0.045-0.435-0.196-0.87-0.458-1.306 0 0.871-0.11 2.024-0.327 3.46 -0.218 1.436-0.326 2.285-0.326 2.546 0 0.959 0.043 1.59 0.131 1.894 0.085 0.307 0.327 0.807 0.718 1.502 0.392 0.698 0.85 1.394 1.372 2.091 0.522 0.959 0.696 2.002 0.522 3.132 -2.351-0.867-4.267-2.436-5.746-4.7 -1.481-2.262-2.134-4.221-1.959-5.876 0.174-1.653 0.216-3.004 0.131-4.048 -0.088-1.045-0.175-2.045-0.261-3.004 0-0.783 0.065-1.566 0.196-2.35 0.131-0.785 0.63-1.741 1.501-2.874 0.869-1.13 1.175-2.394 0.914-3.786 0.608 0.959 0.915 1.958 0.915 3.003 0 0.698-0.175 1.808-0.522 3.33 -0.349 1.524-0.522 2.547-0.522 3.068 0 0.697 0.13 1.395 0.392 2.089 0.347-0.694 0.522-1.436 0.522-2.219 0-1.914 0.216-3.135 0.653-3.656 0.696-1.131 1.044-2.351 1.044-3.657 0-0.868-0.196-2.089-0.587-3.655 -0.392-1.567-0.588-2.655-0.588-3.265 0-0.785 0.066-1.392 0.196-1.829 0.131-0.435 0.458-1.064 0.979-1.893 0.522-0.827 1.088-1.741 1.698-2.743 0.607-1 0.914-1.979 0.914-2.938 0.261 0.871 0.151 2.134-0.327 3.786 -0.479 1.654-0.718 2.787-0.718 3.396 0 0.783 0.196 1.567 0.587 2.351s0.739 1.59 1.045 2.416c0.303 0.828 0.456 1.632 0.456 2.416 0.262-0.436 0.393-1.242 0.393-2.416 0-1.176 0.261-2.198 0.784-3.068 0.522-0.869 0.869-1.676 1.044-2.417 0.173-0.738 0.261-1.457 0.261-2.154 0-1.129-0.327-2.851-0.979-5.158 -0.653-2.305-0.979-4.113-0.979-5.418 0-1.393 0.151-2.655 0.457-3.787 0.305-1.13 0.935-2.524 1.894-4.179 -0.175 1.394-0.261 2.351-0.261 2.873 0 2.438 0.739 4.789 2.221 7.052 4.178 6.444 6.398 10.23 6.658 11.361 0-0.87 0.109-1.914 0.328-3.135 0.216-1.218 0.325-1.914 0.325-2.089 0-1.131-0.392-2.437-1.175-3.917 1.392 0.522 2.436 1.285 3.134 2.285 0.695 1.001 1.046 2.199 1.046 3.59 0 0.959-0.262 2.09-0.785 3.396 0.262 1.481 0.392 2.657 0.392 3.526 0 0.26-0.064 0.632-0.195 1.109 -0.13 0.48-0.196 1.023-0.196 1.633 0 0.696 0.327 2.024 0.98 3.982s0.892 3.46 0.718 4.506c0.522-0.958 0.914-1.959 1.176-3.004 0.261-1.045 0.392-2.002 0.392-2.873 0-0.695-0.088-1.609-0.262-2.741 -0.175-1.132-0.261-1.829-0.261-2.091 0-1.13 0.347-2.48 1.045-4.048 0.434-0.956 0.652-1.608 0.652-1.959 0-0.521-0.131-1.044-0.392-1.566 0.784 0.871 1.283 1.696 1.501 2.481 0.217 0.783 0.328 1.654 0.328 2.611 0 0.871 0.02 1.785 0.065 2.742C79.591 73.865 79.83 74.735 80.266 75.518zM69.611 82.048c0.4 0 0.6-0.348 0.6-1.047 0-0.955-0.361-2.195-1.082-3.72 -0.722-1.522-1.362-2.372-1.921-2.546 -0.176 0.782-0.178 1.523-0.01 2.219 0.167 0.697 0.451 1.437 0.85 2.221 0.16 0.349 0.359 0.937 0.6 1.762C68.889 81.765 69.209 82.135 69.611 82.048z" class="d"/></g><g id="Gravatar_Cache" class="a"><path d="M64 119C33.673 119 9 94.326 9 63.998 9 33.672 33.673 9 64 9s55 24.672 55 54.998C119 94.326 94.327 119 64 119L64 119z" class="c"/><path d="M64 14c27.57 0 50 22.429 50 49.998C114 91.569 91.57 114 64 114S14 91.569 14 63.998C14 36.429 36.43 14 64 14M64 4C30.863 4 4 30.863 4 63.998 4 97.137 30.863 124 64 124s60-26.863 60-60.002C124 30.863 97.137 4 64 4L64 4z" class="e"/><path d="M93.292 84.512l-0.022-0.021v-3.912c0-0.223-0.18-0.402-0.402-0.402 -0.222 0-0.402 0.18-0.402 0.402v3.207L71.44 65.341l-1.608-20.109 -3.218-1.072V31.558c0-4.558-2.682-13.942-2.682-13.942s-2.412 8.848-2.546 14.076V44.16l-3.352 1.072 -1.341 20.109L35.513 83.81v-3.23c0-0.223-0.18-0.402-0.402-0.402s-0.402 0.18-0.402 0.402v3.933 10.367 0.625l22.12-5.362 -0.537 3.888 -11.529 13.54 2.682 2.815 8.58-4.558 1.206-3.083h6.168l0.535 1.206 0.671-1.206h6.301l1.072 3.083 8.848 4.558 2.279-2.815 -11.261-13.54 -0.402-3.888 21.852 5.362V84.512z" class="d"/></g><g id="Gravatar_Cache_copy" class="a"><path d="M124 63.998C124 97.137 97.137 124 64 124S4 97.137 4 63.998C4 30.863 30.863 4 64 4S124 30.863 124 63.998z" class="e"/><path d="M93.292 84.512l-0.022-0.021v-3.912c0-0.223-0.18-0.402-0.402-0.402 -0.222 0-0.402 0.18-0.402 0.402v3.207L71.44 65.341l-1.608-20.109 -3.218-1.072V31.558c0-4.558-2.682-13.942-2.682-13.942s-2.412 8.848-2.546 14.076V44.16l-3.352 1.072 -1.341 20.109L35.513 83.81v-3.23c0-0.223-0.18-0.402-0.402-0.402s-0.402 0.18-0.402 0.402v3.933 10.367 0.625l22.12-5.362 -0.537 3.888 -11.529 13.54 2.682 2.815 8.58-4.558 1.206-3.083h6.168l0.535 1.206 0.671-1.206h6.301l1.072 3.083 8.848 4.558 2.279-2.815 -11.261-13.54 -0.402-3.888 21.852 5.362V84.512z" class="c"/></g><g id="Gravatar_Cache_copy_2" class="a"><path d="M124 63.998C124 97.137 97.137 124 64 124S4 97.137 4 63.998C4 30.863 30.863 4 64 4S124 30.863 124 63.998z" class="b"/><path d="M93.292 84.512l-0.022-0.021v-3.912c0-0.223-0.18-0.402-0.402-0.402 -0.222 0-0.402 0.18-0.402 0.402v3.207L71.44 65.341l-1.608-20.109 -3.218-1.072V31.558c0-4.558-2.682-13.942-2.682-13.942s-2.412 8.848-2.546 14.076V44.16l-3.352 1.072 -1.341 20.109L35.513 83.81v-3.23c0-0.223-0.18-0.402-0.402-0.402s-0.402 0.18-0.402 0.402v3.933 10.367 0.625l22.12-5.362 -0.537 3.888 -11.529 13.54 2.682 2.815 8.58-4.558 1.206-3.083h6.168l0.535 1.206 0.671-1.206h6.301l1.072 3.083 8.848 4.558 2.279-2.815 -11.261-13.54 -0.402-3.888 21.852 5.362V84.512z" class="c"/></g><g id="FV_Descriptions" class="a"><circle cx="64" cy="63.999" r="60" class="b"/><path d="M62.45 80.352c-0.399 0.9-0.3 1.5 0.4 1.5 1.4 0 6.9-3.9 9.4-6.301 1.2 0 2.2 1.1 1.9 2.4 -3.9 5.199-12.801 11.9-21.002 11.9 -2.6 0-4.6-2.801-4.6-4 0-1.1 0.399-2.301 1.2-4.301l10.4-24.901c0.3-0.8 0.3-1.4-0.2-1.4 -1.7 0-7.301 4.2-8.9 5.701 -1.2-0.2-2-1.5-1.601-2.4 5.4-6.601 14.802-11.5 20.102-11.5 2.2 0 4.601 2.2 4.601 4.4 0 1-0.7 2.9-1.301 4.4L62.45 80.352zM73.851 25.148c3.4 0 5.601 2.1 5.601 5.9 0 4.4-3 8.1-7.601 8.1 -3.7 0-5.9-2.5-5.9-5.7C65.95 29.048 69.251 25.148 73.851 25.148z" class="c"/></g><g id="FV_Testimonials_1_" class="a"><circle cx="64" cy="64" r="61.375" class="e"/><path d="M53.906 41.241c1.062 1.094 1.594 2.43 1.594 4.008 0 1.578-0.532 2.914-1.594 4.008l-8.156 8.484 -8.156-8.484C36.531 48.163 36 46.827 36 45.249c0-1.578 0.531-2.914 1.594-4.008 0.938-1 2.086-1.5 3.445-1.5s2.508 0.5 3.445 1.5l1.266 1.312 1.312-1.312c0.938-1 2.078-1.5 3.422-1.5C51.828 39.741 52.969 40.241 53.906 41.241z" class="c"/><path d="M91.906 41.241c1.062 1.094 1.594 2.43 1.594 4.008 0 1.578-0.531 2.914-1.594 4.008l-8.156 8.484 -8.156-8.484C74.531 48.163 74 46.827 74 45.249c0-1.578 0.531-2.914 1.594-4.008 0.938-1 2.086-1.5 3.445-1.5s2.508 0.5 3.445 1.5l1.266 1.312 1.312-1.312c0.938-1 2.078-1.5 3.422-1.5S90.969 40.241 91.906 41.241z" class="c"/><path d="M36 83c0 0 14 13.25 28 13.25S93.5 83 93.5 83" style="fill:none;stroke-linecap:round;stroke-width:6;stroke:#FFF"/></g><g id="Comments_Reloaded" class="a"><circle cx="64" cy="64.498" r="60" class="b"/><path d="M67.875 13.5v12.695c5.469 0.391 10.479 1.889 15.039 4.492 10.416 5.731 16.666 14.389 18.75 25.977v0.391 0.391c0.391 1.953 0.586 3.974 0.586 6.055 0 8.725-2.734 16.504-8.203 23.34s-12.436 11.23-20.898 13.184c-0.131 0-0.263 0.067-0.391 0.195h-0.195 -0.195 -0.586 -0.195l-0.195 0.195h-0.195c-0.131 0-0.263 0.033-0.391 0.098 -0.131 0.067-0.263 0.098-0.391 0.098 -1.562 0.263-2.802 0.391-3.711 0.391h-0.195 -0.781H64.75h-0.977 -0.781 -0.195c-0.912 0-2.148-0.128-3.711-0.391 -0.131 0-0.263-0.03-0.391-0.098 -0.131-0.064-0.263-0.098-0.391-0.098h-0.195l-0.391-0.195h-0.195 -0.391 -0.195c-0.263-0.128-0.458-0.195-0.586-0.195 -8.466-1.953-15.43-6.348-20.898-13.184S27.25 72.225 27.25 63.5c0-8.203 2.667-15.82 8.008-22.852l1.172-1.367 8.984 8.398 -0.977 1.172c-3.125 4.297-4.688 9.18-4.688 14.648 0 6.903 2.441 12.793 7.324 17.676S57.847 88.5 64.75 88.5c6.9 0 12.793-2.441 17.676-7.324S89.75 70.403 89.75 63.5c0-6.51-2.084-12.207-6.25-17.09 -4.169-4.883-9.375-7.647-15.625-8.301v14.453L46 32.25 67.875 13.5z" class="c"/><polygon points="90.256 117.211 116.491 90.976 120.357 119.144 " class="b"/></g><g id="Simpler_SEO" class="a"><circle cx="64" cy="64.235" r="60" class="b"/><path d="M23.235 66.596v-4.72l31.539-15.734v4.935L28.312 64.164v0.143l26.461 13.16v4.863L23.235 66.596z" class="c"/><path d="M73.225 82.33v-4.863l26.391-13.16v-0.143L73.225 51.076v-4.935l31.54 15.734v4.72L73.225 82.33z" class="c"/></g><g id="WYSIWYG" class="a"><path d="M64 119C33.673 119 9 94.326 9 63.999 9 33.672 33.673 9 64 9s55 24.672 55 54.998C119 94.326 94.327 119 64 119L64 119z" class="c"/><path d="M64 14c27.57 0 50 22.429 50 49.998C114 91.569 91.57 114 64 114S14 91.569 14 63.999C14 36.43 36.43 14 64 14M64 4C30.863 4 4 30.863 4 63.999 4 97.137 30.863 124 64 124s60-26.863 60-60.001C124 30.863 97.137 4 64 4L64 4z" class="e"/><text transform="matrix(1 0 0 1 47.4883 93.2695)" font-family="'AmericanTypewriter'" font-size="84.9313" class="e">  f</text></g><g id="SMTP_SendGrid_Edition"><path d="M123.122 116.896c0 3.304-3.179 6.483-6.482 6.483H11.269c-3.303 0-6.483-3.18-6.483-6.483V11.525c0-3.303 3.18-6.483 6.483-6.483H116.64c3.304 0 6.482 3.18 6.482 6.483V116.896z" class="b"/><path d="M120.305 114.863c0 3.146-2.551 5.698-5.699 5.698H13.301c-3.146 0-5.698-2.553-5.698-5.698V13.557c0-3.146 2.552-5.698 5.698-5.698h101.305c3.148 0 5.699 2.552 5.699 5.698V114.863z" class="c"/><path d="M117.621 112.451c0 2.996-2.428 5.426-5.427 5.426H15.713c-2.997 0-5.427-2.43-5.427-5.426V15.97c0-2.997 2.43-5.427 5.427-5.427h96.481c2.999 0 5.427 2.43 5.427 5.427V112.451z" class="b"/><rect x="29.582" y="52.753" width="45.829" height="45.828" fill="#A8E0F4"/><rect x="52.496" y="29.839" width="45.829" height="45.828" fill="#1DBAE4"/><rect x="75.411" y="29.839" width="22.914" height="22.914" class="f"/><rect x="29.582" y="75.667" width="22.914" height="22.914" class="f"/></g></svg>